<svg xmlns="http://www.w3.org/2000/svg" viewBox="0 0 24 24" fill="currentColor"><path d="M12 2C8.13 2 5 5.13 5 9c0 5.25 7 13 7 13s7-7.75 7-13c0-3.87-3.13-7-7-7zm0 9.5c-1.38 0-2.5-1.12-2.5-2.5s1.12-2.5 2.5-2.5 2.5 1.12 2.5 2.5-1.12 2.5-2.5 2.5z" fill="#4285F4"/><path d="M12 2C8.13 2 5 5.13 5 9c0 5.25 7 13 7 13s7-7.75 7-13c0-3.87-3.13-7-7-7zm0 9.5c-1.38 0-2.5-1.12-2.5-2.5s1.12-2.5 2.5-2.5 2.5 1.12 2.5 2.5-1.12 2.5-2.5 2.5z" fill="none"/><path d="M5 9c0 1.28.48 2.45 1.29 3.33L5.22 13.4A8.02 8.02 0 014 9c0-4.42 3.58-8 8-8 1.58 0 3.04.46 4.28 1.25l-1.06 1.06C14.36 2.88 13.24 2.5 12 2.5 8.41 2.5 5.5 5.41 5.5 9z" fill="#34A853"/><path d="M17.71 12.33c.81-.88 1.29-2.05 1.29-3.33 0-1.4-.48-2.67-1.29-3.55l1.06-1.06C19.54 5.96 20 7.42 20 9c0 1.63-.61 3.1-1.61 4.28z" fill="#FBBC05"/><path d="M12 11.5c.69 0 1.25-.56 1.25-1.25S12.69 9 12 9s-1.25.56-1.25 1.25S11.31 11.5 12 11.5zm0-4c1.38 0 2.5 1.12 2.5 2.5S13.38 12.5 12 12.5s-2.5-1.12-2.5-2.5S10.62 7.5 12 7.5z" fill="#EA4335"/></svg>