<svg width="512" height="512" viewBox="0 0 512 512" version="1.1" xmlns="http://www.w3.org/2000/svg">
  <!-- Fundo Azul Irregular (Blob) -->
  <path d="M439.5,190.5c15,65-20,135-65,190s-115,95-185,105s-145-20-190-70s-45-125-10-200s105-135,185-150s150,15,205,70S424.5,125.5,439.5,190.5z" fill="#1e40af" />
  
  <!-- Linhas de Grade (Mapa) -->
  <g stroke="#60a5fa" stroke-width="20" stroke-opacity="0.3">
    <line x1="80" y1="200" x2="430" y2="200" />
    <line x1="80" y1="340" x2="430" y2="340" />
    <line x1="200" y1="80" x2="200" y2="440" />
    <line x1="340" y1="80" x2="340" y2="440" />
  </g>

  <!-- Marcador (Pin) Vermelho -->
  <path d="M256,130c-49.7,0-90,40.3-90,90c0,70,90,160,90,160s90-90,90-160C346,170.3,305.7,130,256,130z" fill="#ef4444" />
  
  <!-- Ponto Branco no Pin -->
  <circle cx="256" cy="215" r="30" fill="#ffffff" />
</svg>